<svg width="49" height="49" viewBox="0 0 49 49" fill="none" xmlns="http://www.w3.org/2000/svg">
<g clip-path="url(#clip0_27_19)">
<path d="M11.2292 31.6459C11.2292 29.7206 11.2292 28.7589 11.8275 28.1607C12.4257 27.5625 13.3873 27.5625 15.3126 27.5625H17.3542C19.2795 27.5625 20.2412 27.5625 20.8394 28.1607C21.4376 28.7589 21.4376 29.7206 21.4376 31.6459V33.6875C21.4376 35.6128 21.4376 36.5744 20.8394 37.1726C20.2412 37.7709 19.2795 37.7709 17.3542 37.7709C14.4673 37.7709 13.0239 37.7709 12.1276 36.8725C11.2292 35.9762 11.2292 34.5328 11.2292 31.6459ZM11.2292 17.3542C11.2292 14.4673 11.2292 13.0238 12.1276 12.1275C13.0239 11.2292 14.4673 11.2292 17.3542 11.2292C19.2795 11.2292 20.2412 11.2292 20.8394 11.8274C21.4376 12.4256 21.4376 13.3872 21.4376 15.3125V17.3542C21.4376 19.2795 21.4376 20.2411 20.8394 20.8393C20.2412 21.4375 19.2795 21.4375 17.3542 21.4375H15.3126C13.3873 21.4375 12.4257 21.4375 11.8275 20.8393C11.2292 20.2411 11.2292 19.2795 11.2292 17.3542ZM27.5626 31.6459C27.5626 29.7206 27.5626 28.7589 28.1608 28.1607C28.759 27.5625 29.7206 27.5625 31.6459 27.5625H33.6876C35.6129 27.5625 36.5745 27.5625 37.1727 28.1607C37.7709 28.7589 37.7709 29.7206 37.7709 31.6459C37.7709 34.5328 37.7709 35.9762 36.8726 36.8725C35.9763 37.7709 34.5328 37.7709 31.6459 37.7709C29.7206 37.7709 28.759 37.7709 28.1608 37.1726C27.5626 36.5744 27.5626 35.6128 27.5626 33.6875V31.6459ZM27.5626 15.3125C27.5626 13.3872 27.5626 12.4256 28.1608 11.8274C28.759 11.2292 29.7206 11.2292 31.6459 11.2292C34.5328 11.2292 35.9763 11.2292 36.8726 12.1275C37.7709 13.0238 37.7709 14.4673 37.7709 17.3542C37.7709 19.2795 37.7709 20.2411 37.1727 20.8393C36.5745 21.4375 35.6129 21.4375 33.6876 21.4375H31.6459C29.7206 21.4375 28.759 21.4375 28.1608 20.8393C27.5626 20.2411 27.5626 19.2795 27.5626 17.3542V15.3125Z" stroke="black" stroke-width="1.5"/>
<path d="M44.9167 28.5833C44.9167 36.2825 44.9167 40.133 42.5239 42.5238C40.1331 44.9167 36.2825 44.9167 28.5834 44.9167M20.4167 44.9167C12.7176 44.9167 8.867 44.9167 6.47621 42.5238C4.08337 40.133 4.08337 36.2825 4.08337 28.5833M20.4167 4.08334C12.7176 4.08334 8.867 4.08334 6.47621 6.47618C4.08337 8.86697 4.08337 12.7176 4.08337 20.4167M28.5834 4.08334C36.2825 4.08334 40.1331 4.08334 42.5239 6.47618C44.9167 8.86697 44.9167 12.7176 44.9167 20.4167" stroke="black" stroke-width="1.5" stroke-linecap="round"/>
</g>
<defs>
<clipPath id="clip0_27_19">
<rect width="49" height="49" fill="white"/>
</clipPath>
</defs>
</svg>
